<svg width="60" height="82" viewBox="0 0 60 82" fill="none" xmlns="http://www.w3.org/2000/svg">
<path d="M40.5 76.5938C41.2188 76.5938 41.8281 76.8438 42.3281 77.3438C42.8594 77.875 43.125 78.5156 43.125 79.2656C43.125 80.0156 42.8594 80.625 42.3281 81.0938C41.8281 81.5938 41.2188 81.8438 40.5 81.8438H29.1562C20.0312 81.8438 12.875 80.0469 7.6875 76.4531C2.5625 72.8906 0 68.0312 0 61.875V20.1094C0 13.9219 2.51562 9.04688 7.54688 5.48438C12.7031 1.82812 19.8906 0 29.1094 0C38.5156 0 45.8906 1.82812 51.2344 5.48438C56.5156 9.14062 59.1562 14.0469 59.1562 20.2031V55.0781C59.1562 58.2656 58.1562 60.8281 56.1562 62.7656C54.2188 64.6719 51.4219 65.625 47.7656 65.625C44.1406 65.625 41.3281 64.4219 39.3281 62.0156C39.0781 61.7344 38.8438 61.5938 38.625 61.5938C38.1562 61.5938 37.8281 61.7344 37.6406 62.0156C35.6406 64.4219 32.5625 65.625 28.4062 65.625C25 65.625 22.125 64.6719 19.7812 62.7656C17.4062 60.7656 16.2188 58.1562 16.2188 54.9375V28.0312C16.2188 25.125 17.2031 22.625 19.1719 20.5312C21.1406 18.4375 23.4375 17.3906 26.0625 17.3906C28.75 17.3906 31.0312 18.4062 32.9062 20.4375C33.0625 20.625 33.2969 20.7188 33.6094 20.7188C34.0156 20.7188 34.2969 20.5312 34.4531 20.1562C34.6094 19.7812 34.7812 19.4688 34.9688 19.2188C35.1562 18.9375 35.4062 18.6719 35.7188 18.4219C36.4688 17.7344 37.2656 17.3906 38.1094 17.3906C38.9531 17.3906 39.6562 17.5 40.2188 17.7188C40.7812 17.9375 41.2812 18.2344 41.7188 18.6094C42.7188 19.5156 43.2188 20.5469 43.2188 21.7031V55.3125C43.2188 56.6562 43.8438 57.8281 45.0938 58.8281C46.2812 59.7656 47.4531 60.2344 48.6094 60.2344C49.7656 60.2344 50.7031 59.8438 51.4219 59.0625C52.1719 58.2812 52.5469 57.1875 52.5469 55.7812V20.2031C52.5469 15.6094 50.4688 11.9688 46.3125 9.28125C42.1562 6.5625 36.375 5.20312 28.9688 5.20312C21.875 5.20312 16.3438 6.54688 12.375 9.23438C8.5 11.8906 6.5625 15.5156 6.5625 20.1094V61.1719C6.5625 65.9531 8.53125 69.7031 12.4688 72.4219C16.4688 75.1719 21.9844 76.5469 29.0156 76.5469L40.5 76.5938ZM34.2188 27.75C34.2188 26.5938 33.8438 25.75 33.0938 25.2188C31.875 24.3125 30.7969 23.8594 29.8594 23.8594C28.9531 23.8594 28.25 23.9688 27.75 24.1875C27.25 24.4062 26.8125 24.7031 26.4375 25.0781C25.625 25.9531 25.2188 26.9844 25.2188 28.1719V55.3125C25.2188 56.5312 25.625 57.4688 26.4375 58.125C27.2812 58.7812 28.1406 59.1094 29.0156 59.1094C29.8906 59.1094 30.6094 59.0312 31.1719 58.875C31.7656 58.7188 32.2812 58.4844 32.7188 58.1719C33.7188 57.4531 34.2188 56.5 34.2188 55.3125V27.75Z" fill="url(#paint0_linear_1_12)"/>
<defs>
<linearGradient id="paint0_linear_1_12" x1="50.6683" y1="-1.05917" x2="-9.54225" y2="71.8509" gradientUnits="userSpaceOnUse">
<stop stop-color="#FFCC70"/>
<stop offset="0.5" stop-color="#C850C0"/>
<stop offset="1" stop-color="#4158D0"/>
</linearGradient>
</defs>
</svg>
