<svg xmlns="http://www.w3.org/2000/svg" xmlns:xlink="http://www.w3.org/1999/xlink" viewBox="0 0 478.84 406">
    <defs>
        <linearGradient id="a" x1="7.03" y1="206" x2="437.03" y2="206" gradientUnits="userSpaceOnUse">
            <stop offset="0" stop-color="#f9d0e0" stop-opacity="0.5" />
            <stop offset="0.5" stop-color="#0084a3" stop-opacity="0.3" />
            <stop offset="1" stop-color="#008d9c" stop-opacity="0.4" />
        </linearGradient>
        <linearGradient id="b" y1="200" x2="430" y2="200" gradientUnits="userSpaceOnUse">
            <stop offset="0" stop-color="#f9d0e0" stop-opacity="0.5" />
            <stop offset="0.5" stop-color="#e94574" stop-opacity="0.8" />
            <stop offset="1" stop-color="#e30613" />
        </linearGradient>
        <clipPath id="c" transform="translate(-6.04 -94)">
            <rect x="403.84" y="168.1" width="34.75" height="122.24" style="fill:none" />
        </clipPath>
        <clipPath id="d" transform="translate(-6.04 -94)">
            <rect x="454.18" y="223.29" width="34.75" height="122.24" style="fill:none" />
        </clipPath>
    </defs>
    <path d="M436,464.55a45.18,45.18,0,0,0,45.18-45.19H458.59A22.55,22.55,0,0,1,436,441.91"
        transform="translate(-6.04 -94)" style="fill:none;stroke:#e00914;stroke-linejoin:round;stroke-width:2px" />
    <rect x="7.03" y="6" width="430" height="400" style="fill:url(#a)" />
    <rect width="430" height="400" style="fill:url(#b)" />
    <path d="M28.56,166.86a62.19,62.19,0,0,0,62.2-62.19H59.6a31,31,0,0,1-31,31Z" transform="translate(-6.04 -94)"
        style="fill:none;stroke:#fff;stroke-linejoin:round;stroke-width:2px" />
    <g style="clip-path:url(#c)">
        <polygon
            points="408.15 77.72 404.52 77.72 404.52 74.1 401.43 74.1 401.43 77.72 397.8 77.72 397.8 80.82 401.43 80.82 401.43 84.45 404.52 84.45 404.52 80.82 408.15 80.82 408.15 77.72"
            style="fill:#e0e0e0" />
        <polygon
            points="428.5 77.72 424.88 77.72 424.88 74.1 421.78 74.1 421.78 77.72 418.15 77.72 418.15 80.82 421.78 80.82 421.78 84.45 424.88 84.45 424.88 80.82 428.5 80.82 428.5 77.72"
            style="fill:#e0e0e0" />
        <polygon
            points="408.15 96.08 404.52 96.08 404.52 92.45 401.43 92.45 401.43 96.08 397.8 96.08 397.8 99.18 401.43 99.18 401.43 102.8 404.52 102.8 404.52 99.18 408.15 99.18 408.15 96.08"
            style="fill:#e0e0e0" />
        <polygon
            points="428.5 96.08 424.88 96.08 424.88 92.45 421.78 92.45 421.78 96.08 418.15 96.08 418.15 99.18 421.78 99.18 421.78 102.8 424.88 102.8 424.88 99.18 428.5 99.18 428.5 96.08"
            style="fill:#e0e0e0" />
        <polygon
            points="408.15 114.43 404.52 114.43 404.52 110.8 401.43 110.8 401.43 114.43 397.8 114.43 397.8 117.53 401.43 117.53 401.43 121.15 404.52 121.15 404.52 117.53 408.15 117.53 408.15 114.43"
            style="fill:#e0e0e0" />
        <polygon
            points="428.5 114.43 424.88 114.43 424.88 110.8 421.78 110.8 421.78 114.43 418.15 114.43 418.15 117.53 421.78 117.53 421.78 121.15 424.88 121.15 424.88 117.53 428.5 117.53 428.5 114.43"
            style="fill:#e0e0e0" />
        <polygon
            points="408.15 132.78 404.52 132.78 404.52 129.15 401.43 129.15 401.43 132.78 397.8 132.78 397.8 135.88 401.43 135.88 401.43 139.5 404.52 139.5 404.52 135.88 408.15 135.88 408.15 132.78"
            style="fill:#e0e0e0" />
        <polygon
            points="428.5 132.78 424.88 132.78 424.88 129.15 421.78 129.15 421.78 132.78 418.15 132.78 418.15 135.88 421.78 135.88 421.78 139.5 424.88 139.5 424.88 135.88 428.5 135.88 428.5 132.78"
            style="fill:#e0e0e0" />
        <polygon
            points="408.15 151.13 404.52 151.13 404.52 147.5 401.43 147.5 401.43 151.13 397.8 151.13 397.8 154.23 401.43 154.23 401.43 157.86 404.52 157.86 404.52 154.23 408.15 154.23 408.15 151.13"
            style="fill:#e0e0e0" />
        <polygon
            points="428.5 151.13 424.88 151.13 424.88 147.5 421.78 147.5 421.78 151.13 418.15 151.13 418.15 154.23 421.78 154.23 421.78 157.86 424.88 157.86 424.88 154.23 428.5 154.23 428.5 151.13"
            style="fill:#e0e0e0" />
        <polygon
            points="408.15 169.48 404.52 169.48 404.52 165.86 401.43 165.86 401.43 169.48 397.8 169.48 397.8 172.58 401.43 172.58 401.43 176.21 404.52 176.21 404.52 172.58 408.15 172.58 408.15 169.48"
            style="fill:#e0e0e0" />
        <polygon
            points="428.5 169.48 424.88 169.48 424.88 165.86 421.78 165.86 421.78 169.48 418.15 169.48 418.15 172.58 421.78 172.58 421.78 176.21 424.88 176.21 424.88 172.58 428.5 172.58 428.5 169.48"
            style="fill:#e0e0e0" />
        <polygon
            points="408.15 187.84 404.52 187.84 404.52 184.21 401.43 184.21 401.43 187.84 397.8 187.84 397.8 190.93 401.43 190.93 401.43 194.56 404.52 194.56 404.52 190.93 408.15 190.93 408.15 187.84"
            style="fill:#e0e0e0" />
        <polygon
            points="428.5 187.84 424.88 187.84 424.88 184.21 421.78 184.21 421.78 187.84 418.15 187.84 418.15 190.93 421.78 190.93 421.78 194.56 424.88 194.56 424.88 190.93 428.5 190.93 428.5 187.84"
            style="fill:#e0e0e0" />
    </g>
    <g style="clip-path:url(#d)">
        <polygon
            points="458.49 132.91 454.87 132.91 454.87 129.29 451.77 129.29 451.77 132.91 448.14 132.91 448.14 136.01 451.77 136.01 451.77 139.64 454.87 139.64 454.87 136.01 458.49 136.01 458.49 132.91"
            style="fill:#0cade2" />
        <polygon
            points="478.84 132.91 475.22 132.91 475.22 129.29 472.12 129.29 472.12 132.91 468.49 132.91 468.49 136.01 472.12 136.01 472.12 139.64 475.22 139.64 475.22 136.01 478.84 136.01 478.84 132.91"
            style="fill:#0cade2" />
        <polygon
            points="458.49 151.26 454.87 151.26 454.87 147.64 451.77 147.64 451.77 151.26 448.14 151.26 448.14 154.36 451.77 154.36 451.77 157.99 454.87 157.99 454.87 154.36 458.49 154.36 458.49 151.26"
            style="fill:#0cade2" />
        <polygon
            points="478.84 151.26 475.22 151.26 475.22 147.64 472.12 147.64 472.12 151.26 468.49 151.26 468.49 154.36 472.12 154.36 472.12 157.99 475.22 157.99 475.22 154.36 478.84 154.36 478.84 151.26"
            style="fill:#0cade2" />
        <polygon
            points="458.49 169.62 454.87 169.62 454.87 165.99 451.77 165.99 451.77 169.62 448.14 169.62 448.14 172.71 451.77 172.71 451.77 176.34 454.87 176.34 454.87 172.71 458.49 172.71 458.49 169.62"
            style="fill:#0cade2" />
        <polygon
            points="478.84 169.62 475.22 169.62 475.22 165.99 472.12 165.99 472.12 169.62 468.49 169.62 468.49 172.71 472.12 172.71 472.12 176.34 475.22 176.34 475.22 172.71 478.84 172.71 478.84 169.62"
            style="fill:#0cade2" />
        <polygon
            points="458.49 187.97 454.87 187.97 454.87 184.34 451.77 184.34 451.77 187.97 448.14 187.97 448.14 191.07 451.77 191.07 451.77 194.69 454.87 194.69 454.87 191.07 458.49 191.07 458.49 187.97"
            style="fill:#0cade2" />
        <polygon
            points="478.84 187.97 475.22 187.97 475.22 184.34 472.12 184.34 472.12 187.97 468.49 187.97 468.49 191.07 472.12 191.07 472.12 194.69 475.22 194.69 475.22 191.07 478.84 191.07 478.84 187.97"
            style="fill:#0cade2" />
        <polygon
            points="458.49 206.32 454.87 206.32 454.87 202.69 451.77 202.69 451.77 206.32 448.14 206.32 448.14 209.42 451.77 209.42 451.77 213.04 454.87 213.04 454.87 209.42 458.49 209.42 458.49 206.32"
            style="fill:#0cade2" />
        <polygon
            points="478.84 206.32 475.22 206.32 475.22 202.69 472.12 202.69 472.12 206.32 468.49 206.32 468.49 209.42 472.12 209.42 472.12 213.04 475.22 213.04 475.22 209.42 478.84 209.42 478.84 206.32"
            style="fill:#0cade2" />
        <polygon
            points="458.49 224.67 454.87 224.67 454.87 221.04 451.77 221.04 451.77 224.67 448.14 224.67 448.14 227.77 451.77 227.77 451.77 231.4 454.87 231.4 454.87 227.77 458.49 227.77 458.49 224.67"
            style="fill:#0cade2" />
        <polygon
            points="478.84 224.67 475.22 224.67 475.22 221.04 472.12 221.04 472.12 224.67 468.49 224.67 468.49 227.77 472.12 227.77 472.12 231.4 475.22 231.4 475.22 227.77 478.84 227.77 478.84 224.67"
            style="fill:#0cade2" />
        <polygon
            points="458.49 243.02 454.87 243.02 454.87 239.4 451.77 239.4 451.77 243.02 448.14 243.02 448.14 246.12 451.77 246.12 451.77 249.75 454.87 249.75 454.87 246.12 458.49 246.12 458.49 243.02"
            style="fill:#0cade2" />
        <polygon
            points="478.84 243.02 475.22 243.02 475.22 239.4 472.12 239.4 472.12 243.02 468.49 243.02 468.49 246.12 472.12 246.12 472.12 249.75 475.22 249.75 475.22 246.12 478.84 246.12 478.84 243.02"
            style="fill:#0cade2" />
    </g>
    <polygon points="0 400.17 10.99 400.17 91.63 319.53 69.35 319.53 0 388.88 0 400.17" style="fill:#e52421" />
    <polygon points="42.83 319.53 0 362.36 0 384.64 65.11 319.53 42.83 319.53" style="fill:#e52421" />
    <polygon points="64.03 400.17 144.66 319.53 122.39 319.53 41.75 400.17 64.03 400.17" style="fill:#e52421" />
    <polygon points="0 358.12 38.59 319.53 16.31 319.53 0 335.84 0 358.12" style="fill:#e52421" />
    <path d="M123.1,494.17,192.26,425a40.26,40.26,0,0,0-13.55-8.73l-77.89,77.89Z" transform="translate(-6.04 -94)"
        style="fill:#e52421" />
    <path d="M164.09,494.17a40.08,40.08,0,0,0,14.9-2.86l22.57-22.56a40.31,40.31,0,0,0,1.79-24.07l-49.49,49.49Z"
        transform="translate(-6.04 -94)" style="fill:#e52421" />
    <path d="M164.09,413.53h-9.15L74.31,494.17H96.58l79-79A40.1,40.1,0,0,0,164.09,413.53Z"
        transform="translate(-6.04 -94)" style="fill:#e52421" />
    <polygon points="0 319.53 0 331.6 12.07 319.53 0 319.53" style="fill:#e52421" />
    <path d="M194.32,427.19l-67,67h22.28l52.81-52.81A40.13,40.13,0,0,0,194.32,427.19Z" transform="translate(-6.04 -94)"
        style="fill:#e52421" />
    <polygon points="95.87 319.53 15.23 400.17 37.51 400.17 118.14 319.53 95.87 319.53" style="fill:#e52421" />
</svg>